<svg width="20" height="20" viewBox="0 0 20 20" fill="none" xmlns="http://www.w3.org/2000/svg">
<path d="M12.1425 12.5033L12.8575 14.0408C12.8575 14.0408 16.0716 14.7233 16.0716 16.3467C16.0716 17.5 14.6416 17.5 14.6416 17.5H10.8333L8.95831 16.4583" stroke="#B0AFB6" stroke-linecap="round" stroke-linejoin="round"/>
<path d="M7.85751 12.5033L7.14334 14.0408C7.14334 14.0408 3.92834 14.7233 3.92834 16.3467C3.92834 17.5 5.35834 17.5 5.35834 17.5H7.08334L8.95834 16.4583L11.25 15" stroke="#B0AFB6" stroke-linecap="round" stroke-linejoin="round"/>
<path d="M2.5 13.2717C2.5 13.2717 4.28583 12.8875 5.3575 12.5033C6.42833 7.12167 9.64167 7.50583 10 7.50583C10.3575 7.50583 13.5717 7.12167 14.6425 12.5033C15.7142 12.8867 17.5 13.2717 17.5 13.2717M10 5.83333C10.442 5.83333 10.866 5.65774 11.1785 5.34518C11.4911 5.03262 11.6667 4.60869 11.6667 4.16667C11.6667 3.72464 11.4911 3.30072 11.1785 2.98816C10.866 2.67559 10.442 2.5 10 2.5C9.55797 2.5 9.13405 2.67559 8.82149 2.98816C8.50893 3.30072 8.33333 3.72464 8.33333 4.16667C8.33333 4.60869 8.50893 5.03262 8.82149 5.34518C9.13405 5.65774 9.55797 5.83333 10 5.83333Z" stroke="#B0AFB6" stroke-linecap="round" stroke-linejoin="round"/>
</svg>
