<?xml version="1.0" standalone="no"?>
<!DOCTYPE svg PUBLIC "-//W3C//DTD SVG 20010904//EN"
 "http://www.w3.org/TR/2001/REC-SVG-20010904/DTD/svg10.dtd">
<svg version="1.0" xmlns="http://www.w3.org/2000/svg"
    viewBox="0 0 225.000000 225.000000"
 preserveAspectRatio="xMidYMid meet">

<g transform="translate(0.000000,225.000000) scale(0.100000,-0.100000)"
fill="#379EE9" stroke="none">
<path d="M0 1125 l0 -1125 1125 0 1125 0 0 1125 0 1125 -1125 0 -1125 0 0
-1125z m1332 390 c11 -4 15 -16 14 -38 -2 -18 -4 -40 -5 -49 -1 -14 -6 -15
-38 -5 -21 6 -81 11 -133 11 -77 1 -101 -3 -127 -18 -38 -23 -56 -55 -55 -95
2 -63 22 -78 227 -171 130 -59 175 -113 175 -212 -1 -99 -51 -167 -151 -204
-55 -21 -238 -24 -321 -6 l-58 13 0 56 c0 44 3 54 14 50 57 -22 115 -31 206
-31 119 0 159 14 185 64 19 37 19 63 0 100 -15 28 -41 43 -238 135 -75 35
-116 70 -138 120 -49 106 8 225 132 274 47 19 69 21 174 17 66 -2 127 -7 137
-11z m-697 -292 c53 -164 110 -340 127 -390 16 -51 26 -97 23 -103 -4 -6 -30
-9 -58 -7 l-51 3 -26 84 -26 85 -161 3 -161 2 -28 -87 -29 -88 -44 -3 c-24 -2
-49 -1 -56 2 -10 3 6 62 61 228 41 123 99 301 130 396 l55 172 74 0 74 0 96
-297z m1101 98 l68 -199 37 107 c20 58 52 148 70 199 l34 92 66 0 66 0 7 -117
c3 -65 10 -221 16 -348 5 -126 12 -251 15 -276 6 -53 2 -56 -60 -55 l-40 1 -7
50 c-3 28 -7 102 -7 166 -1 64 -4 191 -8 283 l-6 166 -47 -127 c-25 -71 -59
-163 -74 -205 l-28 -78 -38 0 c-43 0 -28 -31 -128 258 l-49 143 -7 -273 c-4
-150 -9 -299 -12 -331 l-6 -58 -47 3 -46 3 0 65 c0 89 27 657 34 723 1 4 30 7
65 7 l63 0 69 -199z"/>
<path d="M426 1299 c-19 -62 -49 -156 -65 -206 l-29 -93 129 0 c71 0 129 1
129 3 0 1 -29 94 -64 206 l-64 205 -36 -115z"/>
</g>
</svg>
