<svg id="visual" viewBox="0 0 960 540" width="960" height="540" xmlns="http://www.w3.org/2000/svg" xmlns:xlink="http://www.w3.org/1999/xlink" version="1.1"><rect x="0" y="0" width="960" height="540" fill="#212529"></rect><path d="M0 127L17.8 141.5C35.7 156 71.3 185 106.8 199C142.3 213 177.7 212 213.2 205.3C248.7 198.7 284.3 186.3 320 175.3C355.7 164.3 391.3 154.7 426.8 152.5C462.3 150.3 497.7 155.7 533.2 156.7C568.7 157.7 604.3 154.3 640 151.7C675.7 149 711.3 147 746.8 153C782.3 159 817.7 173 853.2 178.8C888.7 184.7 924.3 182.3 942.2 181.2L960 180L960 0L942.2 0C924.3 0 888.7 0 853.2 0C817.7 0 782.3 0 746.8 0C711.3 0 675.7 0 640 0C604.3 0 568.7 0 533.2 0C497.7 0 462.3 0 426.8 0C391.3 0 355.7 0 320 0C284.3 0 248.7 0 213.2 0C177.7 0 142.3 0 106.8 0C71.3 0 35.7 0 17.8 0L0 0Z" fill="#8c8c93"></path><path d="M0 118L17.8 121.3C35.7 124.7 71.3 131.3 106.8 130.8C142.3 130.3 177.7 122.7 213.2 122.7C248.7 122.7 284.3 130.3 320 126C355.7 121.7 391.3 105.3 426.8 103.3C462.3 101.3 497.7 113.7 533.2 127.3C568.7 141 604.3 156 640 157.2C675.7 158.3 711.3 145.7 746.8 146.7C782.3 147.7 817.7 162.3 853.2 161.2C888.7 160 924.3 143 942.2 134.5L960 126L960 0L942.2 0C924.3 0 888.7 0 853.2 0C817.7 0 782.3 0 746.8 0C711.3 0 675.7 0 640 0C604.3 0 568.7 0 533.2 0C497.7 0 462.3 0 426.8 0C391.3 0 355.7 0 320 0C284.3 0 248.7 0 213.2 0C177.7 0 142.3 0 106.8 0C71.3 0 35.7 0 17.8 0L0 0Z" fill="#7d7e84"></path><path d="M0 85L17.8 83.2C35.7 81.3 71.3 77.7 106.8 84.7C142.3 91.7 177.7 109.3 213.2 110.7C248.7 112 284.3 97 320 88.2C355.7 79.3 391.3 76.7 426.8 78.7C462.3 80.7 497.7 87.3 533.2 98.8C568.7 110.3 604.3 126.7 640 134.7C675.7 142.7 711.3 142.3 746.8 131.5C782.3 120.7 817.7 99.3 853.2 96.7C888.7 94 924.3 110 942.2 118L960 126L960 0L942.2 0C924.3 0 888.7 0 853.2 0C817.7 0 782.3 0 746.8 0C711.3 0 675.7 0 640 0C604.3 0 568.7 0 533.2 0C497.7 0 462.3 0 426.8 0C391.3 0 355.7 0 320 0C284.3 0 248.7 0 213.2 0C177.7 0 142.3 0 106.8 0C71.3 0 35.7 0 17.8 0L0 0Z" fill="#6e7076"></path><path d="M0 104L17.8 102.7C35.7 101.3 71.3 98.7 106.8 99.3C142.3 100 177.7 104 213.2 96.8C248.7 89.7 284.3 71.3 320 65.7C355.7 60 391.3 67 426.8 77.2C462.3 87.3 497.7 100.7 533.2 99.8C568.7 99 604.3 84 640 79C675.7 74 711.3 79 746.8 86.5C782.3 94 817.7 104 853.2 99.3C888.7 94.7 924.3 75.3 942.2 65.7L960 56L960 0L942.2 0C924.3 0 888.7 0 853.2 0C817.7 0 782.3 0 746.8 0C711.3 0 675.7 0 640 0C604.3 0 568.7 0 533.2 0C497.7 0 462.3 0 426.8 0C391.3 0 355.7 0 320 0C284.3 0 248.7 0 213.2 0C177.7 0 142.3 0 106.8 0C71.3 0 35.7 0 17.8 0L0 0Z" fill="#606268"></path><path d="M0 34L17.8 37.5C35.7 41 71.3 48 106.8 47.8C142.3 47.7 177.7 40.3 213.2 39.2C248.7 38 284.3 43 320 46.7C355.7 50.3 391.3 52.7 426.8 49.3C462.3 46 497.7 37 533.2 37.2C568.7 37.3 604.3 46.7 640 56C675.7 65.3 711.3 74.7 746.8 74.7C782.3 74.7 817.7 65.3 853.2 61.8C888.7 58.3 924.3 60.7 942.2 61.8L960 63L960 0L942.2 0C924.3 0 888.7 0 853.2 0C817.7 0 782.3 0 746.8 0C711.3 0 675.7 0 640 0C604.3 0 568.7 0 533.2 0C497.7 0 462.3 0 426.8 0C391.3 0 355.7 0 320 0C284.3 0 248.7 0 213.2 0C177.7 0 142.3 0 106.8 0C71.3 0 35.7 0 17.8 0L0 0Z" fill="#52545a"></path><path d="M0 12L17.8 14.8C35.7 17.7 71.3 23.3 106.8 26.7C142.3 30 177.7 31 213.2 33.5C248.7 36 284.3 40 320 42.7C355.7 45.3 391.3 46.7 426.8 42C462.3 37.3 497.7 26.7 533.2 21.8C568.7 17 604.3 18 640 25C675.7 32 711.3 45 746.8 50.5C782.3 56 817.7 54 853.2 52.5C888.7 51 924.3 50 942.2 49.5L960 49L960 0L942.2 0C924.3 0 888.7 0 853.2 0C817.7 0 782.3 0 746.8 0C711.3 0 675.7 0 640 0C604.3 0 568.7 0 533.2 0C497.7 0 462.3 0 426.8 0C391.3 0 355.7 0 320 0C284.3 0 248.7 0 213.2 0C177.7 0 142.3 0 106.8 0C71.3 0 35.7 0 17.8 0L0 0Z" fill="#44474c"></path></svg>