
<svg version="1.0" xmlns="http://www.w3.org/2000/svg"
 width="" height="" viewBox="0 0 900.000000 660.000000"
 preserveAspectRatio="xMidYMid meet">
<g transform="translate(0.000000,660.000000) scale(0.100000,-0.100000)"
fill="#6395cc" stroke="none">
<path d="M4418 6180 c-21 -5 -61 -23 -90 -39 -29 -16 -372 -208 -763 -427
-390 -218 -780 -436 -865 -484 -85 -47 -231 -129 -325 -182 -93 -52 -205 -115
-249 -139 -44 -25 -97 -64 -121 -91 -81 -90 -76 15 -73 -1483 l3 -1330 23 -51
c13 -28 38 -65 55 -82 18 -17 284 -172 592 -345 308 -173 833 -467 1166 -654
334 -188 623 -346 644 -353 59 -19 160 -8 225 25 30 15 273 150 540 300 267
150 775 436 1130 634 355 199 657 374 673 389 15 14 41 53 57 86 l30 59 0
1332 c0 1513 7 1390 -84 1480 -39 39 -121 89 -346 214 -309 172 -859 479
-1515 847 -519 291 -528 295 -606 300 -35 2 -81 -1 -101 -6z m290 -941 c418
-46 805 -228 1110 -523 138 -133 321 -369 309 -399 -4 -9 -784 -462 -816 -474
-3 -1 -22 21 -41 50 -85 127 -256 265 -409 328 -196 82 -454 91 -656 24 -297
-99 -535 -352 -617 -655 -20 -73 -23 -108 -22 -245 1 -184 15 -252 82 -397 50
-109 89 -165 171 -252 265 -276 673 -366 1028 -225 161 64 325 191 421 328 25
36 47 68 48 70 2 2 34 -14 71 -34 37 -21 223 -123 413 -227 190 -105 347 -192
349 -194 2 -2 -26 -47 -62 -101 -307 -460 -752 -746 -1302 -839 -122 -20 -411
-23 -535 -5 -422 61 -795 246 -1091 541 -359 359 -559 837 -559 1337 0 578
261 1121 716 1490 258 210 628 364 964 402 110 12 317 13 428 0z"/>
</g>
</svg>
