<svg width="20" height="20" viewBox="0 0 20 20" fill="none" xmlns="http://www.w3.org/2000/svg">
<path d="M11.7908 7.89333V3.01C11.7908 2.26833 11.1891 1.66667 10.4475 1.66667C9.70581 1.66667 9.10498 2.26833 9.10498 3.01V7.03833" stroke="#B0AFB6" stroke-linecap="round"/>
<path d="M13.6216 10.7008L15.435 4.6575C15.4854 4.48992 15.502 4.31398 15.4838 4.13992C15.4657 3.96585 15.4131 3.79714 15.3291 3.6436C15.2451 3.49006 15.1314 3.35475 14.9947 3.24555C14.8579 3.13635 14.7008 3.05543 14.5325 3.0075V3.0075C14.3651 2.9598 14.1899 2.94565 14.0171 2.96586C13.8442 2.98607 13.677 3.04025 13.5252 3.12528C13.3733 3.21031 13.2398 3.32451 13.1322 3.46133C13.0246 3.59814 12.9451 3.75487 12.8983 3.9225L11.79 7.8925M6.34997 7.70833L7.22914 9.65917C7.36502 9.98211 7.36935 10.3454 7.24121 10.6715C7.11306 10.9975 6.86259 11.2607 6.5432 11.4047C6.22382 11.5487 5.86079 11.5623 5.53155 11.4425C5.20231 11.3227 4.93291 11.079 4.7808 10.7633L3.89997 8.8125C3.82747 8.65163 3.78736 8.47806 3.78195 8.30169C3.77653 8.12532 3.8059 7.94961 3.86838 7.78459C3.99458 7.45133 4.248 7.18184 4.57289 7.03542C4.89778 6.88899 5.26753 6.87763 5.60079 7.00383C5.93406 7.13002 6.20355 7.38344 6.34997 7.70833V7.70833Z" stroke="#B0AFB6" stroke-linecap="round"/>
<path d="M9.76668 10.2175C9.93705 9.74462 9.91672 9.224 9.71001 8.76583L8.81584 6.7825C8.74439 6.62408 8.64235 6.48133 8.51559 6.36244C8.38882 6.24355 8.23983 6.15086 8.07716 6.08969C7.91449 6.02853 7.74134 6.00008 7.56765 6.006C7.39396 6.01192 7.22314 6.05207 7.06501 6.12417V6.12417C6.90438 6.19745 6.76008 6.30222 6.64066 6.43226C6.52124 6.56231 6.42912 6.71499 6.36976 6.88127C6.31039 7.04755 6.28499 7.22405 6.29505 7.40032C6.30512 7.57659 6.35044 7.74906 6.42834 7.9075L6.54084 8.1375" stroke="#B0AFB6" stroke-linecap="round"/>
<path d="M11.5475 14.7308L11.9575 13.9108C11.9672 13.8916 11.9725 13.8705 11.9731 13.849C11.9737 13.8275 11.9695 13.8061 11.9609 13.7864C11.9523 13.7667 11.9395 13.7491 11.9234 13.7349C11.9072 13.7207 11.8882 13.7102 11.8675 13.7042L8.90917 12.8342C8.62173 12.7496 8.37302 12.567 8.20629 12.3181C8.03957 12.0691 7.9654 11.7696 7.99667 11.4717V11.4717C8.03185 11.1366 8.19765 10.8288 8.45814 10.6151C8.71863 10.4015 9.05284 10.299 9.38834 10.33L13.3783 10.7017C13.3783 10.7017 16.5533 11.19 15.4533 14.3642C14.355 17.5392 13.9892 18.6375 11.5475 18.6375H7.39667C6.45758 18.6375 5.55696 18.2644 4.89292 17.6004C4.22889 16.9364 3.85584 16.0358 3.85584 15.0967V15.0967L3.73334 8.26" stroke="#B0AFB6" stroke-linecap="round"/>
</svg>
