<svg width="20" height="20" viewBox="0 0 20 20" fill="none" xmlns="http://www.w3.org/2000/svg">
<path d="M3.33331 15.8333V4.16667C3.33331 3.72464 3.50891 3.30072 3.82147 2.98816C4.13403 2.67559 4.55795 2.5 4.99998 2.5H16.1666C16.2993 2.5 16.4264 2.55268 16.5202 2.64645C16.614 2.74021 16.6666 2.86739 16.6666 3V13.9283" stroke="#B0AFB6" stroke-linecap="round"/>
<path d="M6.66669 2.5V9.16667L8.75002 7.83333L10.8334 9.16667V2.5" stroke="#B0AFB6" stroke-linecap="round" stroke-linejoin="round"/>
<path d="M5 14.1667H16.6667M5 17.5H16.6667" stroke="#B0AFB6" stroke-linecap="round"/>
<path d="M4.99998 17.5C4.55795 17.5 4.13403 17.3244 3.82147 17.0118C3.50891 16.6993 3.33331 16.2754 3.33331 15.8333C3.33331 15.3913 3.50891 14.9674 3.82147 14.6548C4.13403 14.3423 4.55795 14.1667 4.99998 14.1667" stroke="#B0AFB6" stroke-linecap="round" stroke-linejoin="round"/>
</svg>
