<svg id="visual" viewBox="0 0 900 600" width="900" height="600" xmlns="http://www.w3.org/2000/svg" xmlns:xlink="http://www.w3.org/1999/xlink" version="1.1"><rect x="0" y="0" width="900" height="600" fill="#212529"></rect><path d="M0 393L21.5 412.5C43 432 86 471 128.8 489C171.7 507 214.3 504 257.2 492.8C300 481.7 343 462.3 385.8 450C428.7 437.7 471.3 432.3 514.2 440.8C557 449.3 600 471.7 642.8 473.5C685.7 475.3 728.3 456.7 771.2 439.5C814 422.3 857 406.7 878.5 398.8L900 391L900 601L878.5 601C857 601 814 601 771.2 601C728.3 601 685.7 601 642.8 601C600 601 557 601 514.2 601C471.3 601 428.7 601 385.8 601C343 601 300 601 257.2 601C214.3 601 171.7 601 128.8 601C86 601 43 601 21.5 601L0 601Z" fill="#8d8d93" stroke-linecap="round" stroke-linejoin="miter"></path></svg>