<svg width="20" height="20" viewBox="0 0 20 20" fill="none" xmlns="http://www.w3.org/2000/svg">
<path d="M1.66669 9.16667V3.83333C1.66669 3.70072 1.71937 3.57355 1.81313 3.47978C1.9069 3.38601 2.03408 3.33333 2.16669 3.33333H7.31502C7.43419 3.33332 7.54945 3.37588 7.64002 3.45333L10.2767 5.71333C10.3673 5.79078 10.4825 5.83334 10.6017 5.83333H17.8334C17.899 5.83333 17.964 5.84626 18.0247 5.87139C18.0854 5.89652 18.1405 5.93335 18.1869 5.97978C18.2333 6.02621 18.2702 6.08133 18.2953 6.14199C18.3204 6.20265 18.3334 6.26767 18.3334 6.33333V9.16667M1.66669 9.16667V16.1667C1.66669 16.2993 1.71937 16.4265 1.81313 16.5202C1.9069 16.614 2.03408 16.6667 2.16669 16.6667H17.8334C17.966 16.6667 18.0931 16.614 18.1869 16.5202C18.2807 16.4265 18.3334 16.2993 18.3334 16.1667V9.16667M1.66669 9.16667H18.3334" stroke="#B0AFB6" stroke-linecap="round" stroke-linejoin="round"/>
</svg>
